<svg xmlns="http://www.w3.org/2000/svg" viewBox="0 0 720 720"><path d="M126.09 495.05a271.8 271.8 0 0 0 43 55.87 270 270 0 0 0 381.84 0 271.8 271.8 0 0 0 43-55.87 270.73 270.73 0 0 0 0-270.1 271.5 271.5 0 0 0-43-55.87 270 270 0 0 0-381.84 0 271.2 271.2 0 0 0-43 55.87 270.73 270.73 0 0 0 0 270.1m165-135a69 69 0 1 1 9.25 34.43A68.47 68.47 0 0 1 291.1 360Z" style="fill:#ff8398" transform="translate(.5 .5)"/><path d="M360 529.45V630a268.27 268.27 0 0 0 190.92-79.08 271.8 271.8 0 0 0 43-55.87l-87.14-50.31A169.37 169.37 0 0 1 360 529.45" style="fill:#54e360" transform="translate(.5 .5)"/><path d="M529.45 360a168.7 168.7 0 0 1-22.68 84.74l87.14 50.31a270.73 270.73 0 0 0 0-270.1l-87.14 50.31A168.7 168.7 0 0 1 529.45 360" style="fill:#008adf" transform="translate(.5 .5)"/><path d="m213.23 444.74-87.14 50.31a271.8 271.8 0 0 0 43 55.87A268.27 268.27 0 0 0 360 630V529.45a169.37 169.37 0 0 1-146.77-84.71" style="fill:#ffd400" transform="translate(.5 .5)"/><path d="m507.27 275.76 87.14-50.26a271.5 271.5 0 0 0-43-55.87A268.27 268.27 0 0 0 360.5 90.5v100.55a169.37 169.37 0 0 1 146.77 84.71" fill="#0065a3"/><path d="m126.09 495.05 87.14-50.31a169.65 169.65 0 0 1 0-169.48L126.09 225a270.73 270.73 0 0 0 0 270.1Z" style="fill:#ff9100" transform="translate(.5 .5)"/><path d="M360 190.55V90a268.27 268.27 0 0 0-190.92 79.08 271.2 271.2 0 0 0-43 55.87l87.14 50.31A169.37 169.37 0 0 1 360 190.55" style="fill:#ff4949" transform="translate(.5 .5)"/><path d="M429.41 360.5a68.5 68.5 0 0 1-9.26 34.43l87.12 50.31a169.65 169.65 0 0 0 0-169.48l-87.12 50.3a68.54 68.54 0 0 1 9.26 34.44" fill="#0065a3"/><path d="m419.65 325.56 87.12-50.3A169.37 169.37 0 0 0 360 190.55v100.54a69 69 0 0 1 59.65 34.47" style="fill:#005183" transform="translate(.5 .5)"/><path d="M360 428.9v100.55a169.37 169.37 0 0 0 146.77-84.71l-87.12-50.3A68.93 68.93 0 0 1 360 428.9" style="fill:#00ab5e" transform="translate(.5 .5)"/><path d="M360 529.45V428.9a68.93 68.93 0 0 1-59.65-34.47l-87.12 50.31A169.37 169.37 0 0 0 360 529.45" style="fill:#ff9f04" transform="translate(.5 .5)"/><path d="M291.1 360a68.47 68.47 0 0 1 9.26-34.44l-87.13-50.3a169.65 169.65 0 0 0 0 169.48l87.12-50.31A68.5 68.5 0 0 1 291.1 360" style="fill:#ff4b00" transform="translate(.5 .5)"/><path d="M360 291.09V190.55a169.37 169.37 0 0 0-146.77 84.71l87.13 50.3A68.92 68.92 0 0 1 360 291.09" style="fill:#e80048" transform="translate(.5 .5)"/></svg>